<svg width="372" height="433" viewBox="0 0 372 433" fill="none" xmlns="http://www.w3.org/2000/svg">
<path d="M0 0V370H234.999L234.999 433L372 370V0H0Z" fill="#861083"/>
<path d="M0 0V370H234.999L234.999 433L372 370V0H0Z" fill="#F87311"/>
<path fill-rule="evenodd" clip-rule="evenodd" d="M137.231 309.579L160.045 180.167C161.779 170.337 159.119 165.422 152.288 165.422C141.399 165.422 133.442 178.592 129.271 202.288L110.353 309.603H47.5104L91.1231 62.103H153.966L145.449 110.438C142.589 126.765 137.085 140.991 126.491 159.252L129.559 160.826C146.488 134.493 166.485 121.658 191.235 121.658C219.684 121.658 230.677 135.884 225.516 165.222L200.063 309.579H137.231ZM217.655 309.595H280.498L313.205 123.976H292.921C268.306 123.976 247.247 141.662 242.973 165.909L217.655 309.595ZM252.847 109.902H315.69L324.126 62.103H261.26L252.847 109.902Z" fill="#F87311"/>
<path fill-rule="evenodd" clip-rule="evenodd" d="M137.231 309.579L160.045 180.167C161.779 170.337 159.119 165.422 152.288 165.422C141.399 165.422 133.442 178.592 129.271 202.288L110.353 309.603H47.5104L91.1231 62.103H153.966L145.449 110.438C142.589 126.765 137.085 140.991 126.491 159.252L129.559 160.826C146.488 134.493 166.485 121.658 191.235 121.658C219.684 121.658 230.677 135.884 225.516 165.222L200.063 309.579H137.231ZM217.655 309.595H280.498L313.205 123.976H292.921C268.306 123.976 247.247 141.662 242.973 165.909L217.655 309.595ZM252.847 109.902H315.69L324.126 62.103H261.26L252.847 109.902Z" fill="#861083"/>
</svg>
